G04*
G04 #@! TF.GenerationSoftware,Altium Limited,Altium Designer,20.0.13 (296)*
G04*
G04 Layer_Physical_Order=2*
G04 Layer_Color=16711680*
%FSLAX44Y44*%
%MOMM*%
G71*
G01*
G75*
%ADD26C,0.6000*%
%ADD27C,3.4000*%
%ADD28R,1.6500X1.6500*%
%ADD29C,1.6500*%
%ADD30C,2.7000*%
%ADD31C,4.0000*%
%ADD32C,1.6050*%
%ADD33R,1.6050X1.6050*%
%ADD34C,0.8000*%
%ADD35C,0.5000*%
G36*
X460431Y3569D02*
X36633D01*
X36315Y4839D01*
X38205Y5849D01*
X40647Y7853D01*
X42651Y10295D01*
X44141Y13082D01*
X45058Y16106D01*
X45243Y17980D01*
X29250D01*
X13257D01*
X13442Y16106D01*
X14359Y13082D01*
X15849Y10295D01*
X17853Y7853D01*
X20296Y5849D01*
X22185Y4839D01*
X21867Y3569D01*
X3569D01*
Y331431D01*
X460431D01*
Y3569D01*
D02*
G37*
%LPC*%
G36*
X295571Y284588D02*
X274600D01*
X272844Y284239D01*
X271356Y283244D01*
X260585Y272473D01*
X260117Y272667D01*
X257500Y273011D01*
X254883Y272667D01*
X252444Y271657D01*
X250350Y270050D01*
X248743Y267956D01*
X247733Y265517D01*
X247388Y262900D01*
X247733Y260283D01*
X248743Y257844D01*
X250350Y255750D01*
X252444Y254143D01*
X254883Y253133D01*
X257500Y252789D01*
X260117Y253133D01*
X262556Y254143D01*
X264650Y255750D01*
X266257Y257844D01*
X267267Y260283D01*
X267612Y262900D01*
X267267Y265517D01*
X267073Y265985D01*
X271702Y270613D01*
X272875Y270127D01*
Y252875D01*
X292925D01*
Y257912D01*
X296350D01*
X301912Y252349D01*
Y204500D01*
X302261Y202744D01*
X303256Y201256D01*
X365912Y138600D01*
Y76400D01*
X357483Y67972D01*
X354250D01*
Y73634D01*
X333750D01*
Y53134D01*
X354250D01*
Y58796D01*
X359384D01*
X361140Y59145D01*
X362628Y60140D01*
X371739Y69250D01*
X372912Y68764D01*
Y64150D01*
X358100Y49338D01*
X327650D01*
X323188Y53801D01*
Y66890D01*
X323769Y67131D01*
X325910Y68774D01*
X327553Y70915D01*
X328586Y73408D01*
X328938Y76084D01*
X328586Y78760D01*
X327553Y81253D01*
X325910Y83394D01*
X323769Y85037D01*
X321276Y86070D01*
X318600Y86422D01*
X315924Y86070D01*
X313431Y85037D01*
X311290Y83394D01*
X309647Y81253D01*
X308614Y78760D01*
X308262Y76084D01*
X308614Y73408D01*
X309647Y70915D01*
X311290Y68774D01*
X313431Y67131D01*
X314012Y66890D01*
Y51900D01*
X314361Y50144D01*
X315356Y48656D01*
X322506Y41506D01*
X323994Y40511D01*
X325750Y40162D01*
X360000D01*
X361756Y40511D01*
X363244Y41506D01*
X380744Y59006D01*
X381739Y60494D01*
X382088Y62250D01*
Y144000D01*
X381739Y145756D01*
X380744Y147244D01*
X318088Y209900D01*
Y262071D01*
X317739Y263827D01*
X316744Y265315D01*
X298815Y283244D01*
X297327Y284239D01*
X295571Y284588D01*
D02*
G37*
G36*
X207970Y273389D02*
Y264170D01*
X217189D01*
X216993Y265658D01*
X215928Y268228D01*
X214235Y270435D01*
X212028Y272129D01*
X209458Y273193D01*
X207970Y273389D01*
D02*
G37*
G36*
X205430Y273389D02*
X203942Y273193D01*
X201372Y272129D01*
X199165Y270435D01*
X197472Y268228D01*
X196407Y265658D01*
X196211Y264170D01*
X205430D01*
Y273389D01*
D02*
G37*
G36*
X232100Y273011D02*
X229483Y272667D01*
X227044Y271657D01*
X224950Y270050D01*
X223343Y267956D01*
X222333Y265517D01*
X221989Y262900D01*
X222333Y260283D01*
X223343Y257844D01*
X224950Y255750D01*
X227044Y254143D01*
X229483Y253133D01*
X232100Y252789D01*
X234717Y253133D01*
X237156Y254143D01*
X239250Y255750D01*
X240857Y257844D01*
X241867Y260283D01*
X242211Y262900D01*
X241867Y265517D01*
X240857Y267956D01*
X239250Y270050D01*
X237156Y271657D01*
X234717Y272667D01*
X232100Y273011D01*
D02*
G37*
G36*
X181300D02*
X178683Y272667D01*
X176244Y271657D01*
X174150Y270050D01*
X172576Y267998D01*
X150650D01*
X148699Y267610D01*
X147045Y266505D01*
X139145Y258605D01*
X138040Y256951D01*
X137652Y255000D01*
Y203001D01*
X75381Y140730D01*
X74275Y139076D01*
X73887Y137125D01*
Y83015D01*
X74275Y81064D01*
X75381Y79410D01*
X106645Y48145D01*
X108299Y47040D01*
X110250Y46652D01*
X140064D01*
X141340Y44990D01*
X143481Y43347D01*
X145974Y42314D01*
X148650Y41962D01*
X151326Y42314D01*
X153819Y43347D01*
X155960Y44990D01*
X157603Y47131D01*
X158636Y49624D01*
X158988Y52300D01*
X158636Y54976D01*
X157603Y57469D01*
X155960Y59610D01*
X153819Y61253D01*
X151326Y62286D01*
X148650Y62638D01*
X145974Y62286D01*
X143481Y61253D01*
X141340Y59610D01*
X139697Y57469D01*
X139439Y56848D01*
X131449D01*
X130889Y58118D01*
X132203Y59831D01*
X133236Y62324D01*
X133588Y65000D01*
X133236Y67676D01*
X132203Y70169D01*
X130560Y72310D01*
X128419Y73953D01*
X125926Y74986D01*
X123250Y75338D01*
X120574Y74986D01*
X118081Y73953D01*
X115940Y72310D01*
X114297Y70169D01*
X113264Y67676D01*
X112912Y65000D01*
X113264Y62324D01*
X114297Y59831D01*
X115611Y58118D01*
X115051Y56848D01*
X112362D01*
X84083Y85126D01*
Y135013D01*
X146355Y197285D01*
X147460Y198939D01*
X147848Y200890D01*
Y252888D01*
X152762Y257802D01*
X172576D01*
X174150Y255750D01*
X176244Y254143D01*
X178683Y253133D01*
X181300Y252789D01*
X183917Y253133D01*
X186356Y254143D01*
X188450Y255750D01*
X190057Y257844D01*
X191067Y260283D01*
X191411Y262900D01*
X191067Y265517D01*
X190057Y267956D01*
X188450Y270050D01*
X186356Y271657D01*
X183917Y272667D01*
X181300Y273011D01*
D02*
G37*
G36*
X205430Y261630D02*
X196211D01*
X196407Y260142D01*
X197472Y257572D01*
X199165Y255365D01*
X201372Y253671D01*
X203942Y252607D01*
X205430Y252411D01*
Y261630D01*
D02*
G37*
G36*
X217189D02*
X207970D01*
Y252411D01*
X209458Y252607D01*
X212028Y253671D01*
X214235Y255365D01*
X215928Y257572D01*
X216993Y260142D01*
X217189Y261630D01*
D02*
G37*
G36*
X404500Y283856D02*
X400187Y283432D01*
X396040Y282174D01*
X392218Y280131D01*
X388868Y277382D01*
X386119Y274032D01*
X384076Y270210D01*
X382818Y266063D01*
X382394Y261750D01*
X382818Y257437D01*
X384076Y253290D01*
X386119Y249468D01*
X388868Y246118D01*
X392218Y243369D01*
X396040Y241326D01*
X400187Y240068D01*
X404500Y239644D01*
X408813Y240068D01*
X412960Y241326D01*
X416782Y243369D01*
X420132Y246118D01*
X422881Y249468D01*
X424924Y253290D01*
X426182Y257437D01*
X426606Y261750D01*
X426182Y266063D01*
X424924Y270210D01*
X422881Y274032D01*
X420132Y277382D01*
X416782Y280131D01*
X412960Y282174D01*
X408813Y283432D01*
X404500Y283856D01*
D02*
G37*
G36*
X59250Y277606D02*
X54937Y277182D01*
X50790Y275924D01*
X46968Y273881D01*
X43618Y271132D01*
X40869Y267782D01*
X38826Y263960D01*
X37568Y259813D01*
X37144Y255500D01*
X37568Y251187D01*
X38826Y247040D01*
X40869Y243218D01*
X43618Y239868D01*
X46968Y237119D01*
X50790Y235076D01*
X54937Y233818D01*
X59250Y233394D01*
X63563Y233818D01*
X67710Y235076D01*
X71532Y237119D01*
X74882Y239868D01*
X77631Y243218D01*
X79674Y247040D01*
X80932Y251187D01*
X81356Y255500D01*
X80932Y259813D01*
X79674Y263960D01*
X77631Y267782D01*
X74882Y271132D01*
X71532Y273881D01*
X67710Y275924D01*
X63563Y277182D01*
X59250Y277606D01*
D02*
G37*
G36*
X282900Y247612D02*
X280283Y247267D01*
X277844Y246257D01*
X275750Y244650D01*
X274143Y242556D01*
X273133Y240117D01*
X272789Y237500D01*
X273133Y234883D01*
X274143Y232444D01*
X275750Y230350D01*
X277844Y228743D01*
X280283Y227733D01*
X282900Y227388D01*
X285517Y227733D01*
X287956Y228743D01*
X290050Y230350D01*
X291657Y232444D01*
X292667Y234883D01*
X293011Y237500D01*
X292667Y240117D01*
X291657Y242556D01*
X290050Y244650D01*
X287956Y246257D01*
X285517Y247267D01*
X282900Y247612D01*
D02*
G37*
G36*
X232100D02*
X229483Y247267D01*
X227044Y246257D01*
X224950Y244650D01*
X223343Y242556D01*
X222333Y240117D01*
X221989Y237500D01*
X222333Y234883D01*
X223343Y232444D01*
X224950Y230350D01*
X227044Y228743D01*
X229483Y227733D01*
X232100Y227388D01*
X234717Y227733D01*
X237156Y228743D01*
X239250Y230350D01*
X240857Y232444D01*
X241867Y234883D01*
X242211Y237500D01*
X241867Y240117D01*
X240857Y242556D01*
X239250Y244650D01*
X237156Y246257D01*
X234717Y247267D01*
X232100Y247612D01*
D02*
G37*
G36*
X206700D02*
X204083Y247267D01*
X201644Y246257D01*
X199550Y244650D01*
X197943Y242556D01*
X196933Y240117D01*
X196588Y237500D01*
X196933Y234883D01*
X197943Y232444D01*
X199550Y230350D01*
X201644Y228743D01*
X204083Y227733D01*
X206700Y227388D01*
X209317Y227733D01*
X211756Y228743D01*
X213850Y230350D01*
X215457Y232444D01*
X216467Y234883D01*
X216812Y237500D01*
X216467Y240117D01*
X215457Y242556D01*
X213850Y244650D01*
X211756Y246257D01*
X209317Y247267D01*
X206700Y247612D01*
D02*
G37*
G36*
X181300D02*
X178683Y247267D01*
X176244Y246257D01*
X174150Y244650D01*
X172543Y242556D01*
X171533Y240117D01*
X171189Y237500D01*
X171533Y234883D01*
X172543Y232444D01*
X174150Y230350D01*
X176244Y228743D01*
X178683Y227733D01*
X181300Y227388D01*
X183917Y227733D01*
X186356Y228743D01*
X188450Y230350D01*
X190057Y232444D01*
X191067Y234883D01*
X191411Y237500D01*
X191067Y240117D01*
X190057Y242556D01*
X188450Y244650D01*
X186356Y246257D01*
X183917Y247267D01*
X181300Y247612D01*
D02*
G37*
G36*
X439270Y201327D02*
Y186604D01*
X453993D01*
X453808Y188478D01*
X452891Y191502D01*
X451401Y194289D01*
X449397Y196731D01*
X446954Y198735D01*
X444168Y200225D01*
X441144Y201142D01*
X439270Y201327D01*
D02*
G37*
G36*
X436730D02*
X434856Y201142D01*
X431832Y200225D01*
X429045Y198735D01*
X426603Y196731D01*
X424599Y194289D01*
X423109Y191502D01*
X422192Y188478D01*
X422007Y186604D01*
X436730D01*
Y201327D01*
D02*
G37*
G36*
X30520Y190243D02*
Y175520D01*
X45243D01*
X45058Y177394D01*
X44141Y180418D01*
X42651Y183204D01*
X40647Y185647D01*
X38205Y187651D01*
X35418Y189141D01*
X32394Y190058D01*
X30520Y190243D01*
D02*
G37*
G36*
X27980D02*
X26106Y190058D01*
X23082Y189141D01*
X20296Y187651D01*
X17853Y185647D01*
X15849Y183204D01*
X14359Y180418D01*
X13442Y177394D01*
X13257Y175520D01*
X27980D01*
Y190243D01*
D02*
G37*
G36*
X436730Y184064D02*
X422007D01*
X422192Y182190D01*
X423109Y179166D01*
X424599Y176380D01*
X426603Y173937D01*
X429045Y171933D01*
X431832Y170443D01*
X434856Y169526D01*
X436730Y169342D01*
Y184064D01*
D02*
G37*
G36*
X453993D02*
X439270D01*
Y169342D01*
X441144Y169526D01*
X444168Y170443D01*
X446954Y171933D01*
X449397Y173937D01*
X451401Y176380D01*
X452891Y179166D01*
X453808Y182190D01*
X453993Y184064D01*
D02*
G37*
G36*
X45243Y172980D02*
X30520D01*
Y158258D01*
X32394Y158442D01*
X35418Y159359D01*
X38205Y160849D01*
X40647Y162853D01*
X42651Y165296D01*
X44141Y168082D01*
X45058Y171106D01*
X45243Y172980D01*
D02*
G37*
G36*
X27980D02*
X13257D01*
X13442Y171106D01*
X14359Y168082D01*
X15849Y165296D01*
X17853Y162853D01*
X20296Y160849D01*
X23082Y159359D01*
X26106Y158442D01*
X27980Y158258D01*
Y172980D01*
D02*
G37*
G36*
X407500Y184076D02*
X403775Y183709D01*
X400194Y182623D01*
X396893Y180858D01*
X394000Y178484D01*
X391626Y175591D01*
X389861Y172290D01*
X388775Y168709D01*
X388408Y164984D01*
X388775Y161259D01*
X389861Y157678D01*
X391626Y154377D01*
X394000Y151484D01*
X396893Y149110D01*
X400194Y147345D01*
X403775Y146259D01*
X407500Y145892D01*
X411225Y146259D01*
X414806Y147345D01*
X418107Y149110D01*
X421000Y151484D01*
X423374Y154377D01*
X425139Y157678D01*
X426225Y161259D01*
X426592Y164984D01*
X426225Y168709D01*
X425139Y172290D01*
X423374Y175591D01*
X421000Y178484D01*
X418107Y180858D01*
X414806Y182623D01*
X411225Y183709D01*
X407500Y184076D01*
D02*
G37*
G36*
X318600Y162622D02*
X315924Y162270D01*
X313431Y161237D01*
X311290Y159594D01*
X309647Y157453D01*
X308614Y154960D01*
X308262Y152284D01*
X308614Y149608D01*
X309647Y147115D01*
X311290Y144974D01*
X313431Y143331D01*
X315924Y142298D01*
X318600Y141946D01*
X321276Y142298D01*
X323769Y143331D01*
X325910Y144974D01*
X327553Y147115D01*
X328586Y149608D01*
X328938Y152284D01*
X328586Y154960D01*
X327553Y157453D01*
X325910Y159594D01*
X323769Y161237D01*
X321276Y162270D01*
X318600Y162622D01*
D02*
G37*
G36*
X59750Y172992D02*
X56025Y172625D01*
X52444Y171539D01*
X49143Y169774D01*
X46250Y167400D01*
X43876Y164507D01*
X42111Y161206D01*
X41025Y157625D01*
X40658Y153900D01*
X41025Y150175D01*
X42111Y146594D01*
X43876Y143293D01*
X46250Y140400D01*
X49143Y138026D01*
X52444Y136261D01*
X56025Y135175D01*
X59750Y134808D01*
X63475Y135175D01*
X67056Y136261D01*
X70357Y138026D01*
X73250Y140400D01*
X75624Y143293D01*
X77389Y146594D01*
X78475Y150175D01*
X78842Y153900D01*
X78475Y157625D01*
X77389Y161206D01*
X75624Y164507D01*
X73250Y167400D01*
X70357Y169774D01*
X67056Y171539D01*
X63475Y172625D01*
X59750Y172992D01*
D02*
G37*
G36*
X133500Y151450D02*
X113000D01*
Y130950D01*
X133500D01*
Y151450D01*
D02*
G37*
G36*
X344000Y149922D02*
X341324Y149570D01*
X338831Y148537D01*
X336690Y146894D01*
X335047Y144753D01*
X334014Y142260D01*
X333662Y139584D01*
X334014Y136908D01*
X335047Y134415D01*
X336690Y132274D01*
X338831Y130631D01*
X341324Y129598D01*
X344000Y129246D01*
X346676Y129598D01*
X349169Y130631D01*
X351310Y132274D01*
X352953Y134415D01*
X353986Y136908D01*
X354338Y139584D01*
X353986Y142260D01*
X352953Y144753D01*
X351310Y146894D01*
X349169Y148537D01*
X346676Y149570D01*
X344000Y149922D01*
D02*
G37*
G36*
X124520Y126516D02*
Y117070D01*
X133966D01*
X133762Y118617D01*
X132675Y121242D01*
X130946Y123496D01*
X128692Y125225D01*
X126067Y126312D01*
X124520Y126516D01*
D02*
G37*
G36*
X121980D02*
X120433Y126312D01*
X117809Y125225D01*
X115555Y123496D01*
X113825Y121242D01*
X112738Y118617D01*
X112534Y117070D01*
X121980D01*
Y126516D01*
D02*
G37*
G36*
X318600Y137222D02*
X315924Y136870D01*
X313431Y135837D01*
X311290Y134194D01*
X309647Y132053D01*
X308614Y129560D01*
X308262Y126884D01*
X308614Y124208D01*
X309647Y121715D01*
X311290Y119574D01*
X313431Y117931D01*
X315924Y116898D01*
X318600Y116546D01*
X321276Y116898D01*
X323769Y117931D01*
X325910Y119574D01*
X327553Y121715D01*
X328586Y124208D01*
X328938Y126884D01*
X328586Y129560D01*
X327553Y132053D01*
X325910Y134194D01*
X323769Y135837D01*
X321276Y136870D01*
X318600Y137222D01*
D02*
G37*
G36*
X121980Y114530D02*
X112534D01*
X112738Y112983D01*
X113825Y110358D01*
X115555Y108104D01*
X117809Y106375D01*
X120433Y105288D01*
X121980Y105084D01*
Y114530D01*
D02*
G37*
G36*
X133966D02*
X124520D01*
Y105084D01*
X126067Y105288D01*
X128692Y106375D01*
X130946Y108104D01*
X132675Y110358D01*
X133762Y112983D01*
X133966Y114530D01*
D02*
G37*
G36*
X344000Y124522D02*
X341324Y124170D01*
X338831Y123137D01*
X336690Y121494D01*
X335047Y119353D01*
X334014Y116860D01*
X333662Y114184D01*
X334014Y111508D01*
X335047Y109015D01*
X336690Y106874D01*
X338831Y105231D01*
X341324Y104198D01*
X344000Y103846D01*
X346676Y104198D01*
X349169Y105231D01*
X351310Y106874D01*
X352953Y109015D01*
X353986Y111508D01*
X354338Y114184D01*
X353986Y116860D01*
X352953Y119353D01*
X351310Y121494D01*
X349169Y123137D01*
X346676Y124170D01*
X344000Y124522D01*
D02*
G37*
G36*
X231250Y146356D02*
X226937Y145932D01*
X222790Y144674D01*
X218968Y142631D01*
X215618Y139882D01*
X212869Y136532D01*
X210826Y132710D01*
X209568Y128563D01*
X209144Y124250D01*
X209568Y119937D01*
X210826Y115790D01*
X212869Y111968D01*
X215618Y108618D01*
X218968Y105869D01*
X222790Y103826D01*
X226937Y102568D01*
X231250Y102144D01*
X235563Y102568D01*
X239710Y103826D01*
X243532Y105869D01*
X246882Y108618D01*
X249631Y111968D01*
X251674Y115790D01*
X252932Y119937D01*
X253356Y124250D01*
X252932Y128563D01*
X251674Y132710D01*
X249631Y136532D01*
X246882Y139882D01*
X243532Y142631D01*
X239710Y144674D01*
X235563Y145932D01*
X231250Y146356D01*
D02*
G37*
G36*
X257500Y247612D02*
X254883Y247267D01*
X252444Y246257D01*
X250350Y244650D01*
X248743Y242556D01*
X247733Y240117D01*
X247388Y237500D01*
X247733Y234883D01*
X248743Y232444D01*
X250350Y230350D01*
X252402Y228776D01*
Y207126D01*
X251874Y206598D01*
X221650D01*
X219699Y206210D01*
X218045Y205105D01*
X151397Y138457D01*
X151326Y138486D01*
X148650Y138838D01*
X145974Y138486D01*
X143481Y137453D01*
X141340Y135810D01*
X139697Y133669D01*
X138664Y131176D01*
X138312Y128500D01*
X138664Y125824D01*
X139697Y123331D01*
X141340Y121190D01*
X143481Y119547D01*
X145974Y118514D01*
X148650Y118162D01*
X151326Y118514D01*
X153819Y119547D01*
X155960Y121190D01*
X157603Y123331D01*
X158636Y125824D01*
X158988Y128500D01*
X158636Y131176D01*
X158607Y131247D01*
X223762Y196402D01*
X233157D01*
X233472Y195132D01*
X151397Y113057D01*
X151326Y113086D01*
X148650Y113438D01*
X145974Y113086D01*
X143481Y112053D01*
X141340Y110410D01*
X139697Y108269D01*
X138664Y105776D01*
X138312Y103100D01*
X138664Y100424D01*
X139697Y97931D01*
X141340Y95790D01*
X143481Y94147D01*
X145974Y93114D01*
X148650Y92762D01*
X151326Y93114D01*
X153819Y94147D01*
X155960Y95790D01*
X157603Y97931D01*
X158636Y100424D01*
X158988Y103100D01*
X158636Y105776D01*
X158607Y105847D01*
X239412Y186652D01*
X277887D01*
Y120515D01*
X278275Y118564D01*
X279380Y116910D01*
X297745Y98545D01*
X299399Y97440D01*
X301350Y97052D01*
X309341D01*
X309647Y96315D01*
X311290Y94174D01*
X313431Y92531D01*
X315924Y91498D01*
X318600Y91146D01*
X321276Y91498D01*
X323769Y92531D01*
X325910Y94174D01*
X327553Y96315D01*
X328586Y98808D01*
X328938Y101484D01*
X328586Y104160D01*
X327553Y106653D01*
X325910Y108794D01*
X323769Y110437D01*
X321276Y111470D01*
X318600Y111822D01*
X315924Y111470D01*
X313431Y110437D01*
X311290Y108794D01*
X310103Y107248D01*
X303462D01*
X288083Y122626D01*
Y191750D01*
Y209015D01*
X287695Y210966D01*
X286590Y212619D01*
X276346Y222863D01*
X276152Y223841D01*
X274826Y225826D01*
X272841Y227152D01*
X270500Y227617D01*
X268159Y227152D01*
X266174Y225826D01*
X264848Y223841D01*
X264382Y221500D01*
X264848Y219159D01*
X266174Y217174D01*
X268159Y215848D01*
X269137Y215654D01*
X277887Y206903D01*
Y196848D01*
X258128D01*
X257813Y198118D01*
X261105Y201410D01*
X262210Y203064D01*
X262598Y205015D01*
Y228776D01*
X264650Y230350D01*
X266257Y232444D01*
X267267Y234883D01*
X267612Y237500D01*
X267267Y240117D01*
X266257Y242556D01*
X264650Y244650D01*
X262556Y246257D01*
X260117Y247267D01*
X257500Y247612D01*
D02*
G37*
G36*
X345270Y99500D02*
Y90054D01*
X354716D01*
X354512Y91601D01*
X353425Y94226D01*
X351696Y96480D01*
X349441Y98209D01*
X346817Y99296D01*
X345270Y99500D01*
D02*
G37*
G36*
X342730Y99500D02*
X341183Y99296D01*
X338559Y98209D01*
X336305Y96480D01*
X334575Y94226D01*
X333488Y91601D01*
X333284Y90054D01*
X342730D01*
Y99500D01*
D02*
G37*
G36*
X123250Y100738D02*
X120574Y100386D01*
X118081Y99353D01*
X115940Y97710D01*
X114297Y95569D01*
X113264Y93076D01*
X112912Y90400D01*
X113264Y87724D01*
X114297Y85231D01*
X115940Y83090D01*
X118081Y81447D01*
X120574Y80414D01*
X123250Y80062D01*
X125926Y80414D01*
X128419Y81447D01*
X130560Y83090D01*
X132203Y85231D01*
X133236Y87724D01*
X133588Y90400D01*
X133236Y93076D01*
X132203Y95569D01*
X130560Y97710D01*
X128419Y99353D01*
X125926Y100386D01*
X123250Y100738D01*
D02*
G37*
G36*
X342730Y87514D02*
X333284D01*
X333488Y85967D01*
X334575Y83343D01*
X336305Y81088D01*
X338559Y79359D01*
X341183Y78272D01*
X342730Y78068D01*
Y87514D01*
D02*
G37*
G36*
X354716D02*
X345270D01*
Y78068D01*
X346817Y78272D01*
X349441Y79359D01*
X351696Y81088D01*
X353425Y83343D01*
X354512Y85967D01*
X354716Y87514D01*
D02*
G37*
G36*
X148650Y88038D02*
X145974Y87686D01*
X143481Y86653D01*
X141340Y85010D01*
X139697Y82869D01*
X138664Y80376D01*
X138312Y77700D01*
X138664Y75024D01*
X139697Y72531D01*
X141340Y70390D01*
X143481Y68747D01*
X145974Y67714D01*
X148650Y67362D01*
X151326Y67714D01*
X153819Y68747D01*
X155960Y70390D01*
X157603Y72531D01*
X158636Y75024D01*
X158988Y77700D01*
X158636Y80376D01*
X157603Y82869D01*
X155960Y85010D01*
X153819Y86653D01*
X151326Y87686D01*
X148650Y88038D01*
D02*
G37*
G36*
X439270Y46326D02*
Y31604D01*
X453993D01*
X453808Y33478D01*
X452891Y36502D01*
X451401Y39288D01*
X449397Y41731D01*
X446954Y43735D01*
X444168Y45225D01*
X441144Y46142D01*
X439270Y46326D01*
D02*
G37*
G36*
X436730D02*
X434856Y46142D01*
X431832Y45225D01*
X429045Y43735D01*
X426603Y41731D01*
X424599Y39288D01*
X423109Y36502D01*
X422192Y33478D01*
X422007Y31604D01*
X436730D01*
Y46326D01*
D02*
G37*
G36*
X407500Y69776D02*
X403775Y69409D01*
X400194Y68323D01*
X396893Y66558D01*
X394000Y64184D01*
X391626Y61291D01*
X389861Y57990D01*
X388775Y54409D01*
X388408Y50684D01*
X388775Y46959D01*
X389861Y43378D01*
X391626Y40077D01*
X394000Y37184D01*
X396893Y34810D01*
X400194Y33045D01*
X403775Y31959D01*
X407500Y31592D01*
X411225Y31959D01*
X414806Y33045D01*
X418107Y34810D01*
X421000Y37184D01*
X423374Y40077D01*
X425139Y43378D01*
X426225Y46959D01*
X426592Y50684D01*
X426225Y54409D01*
X425139Y57990D01*
X423374Y61291D01*
X421000Y64184D01*
X418107Y66558D01*
X414806Y68323D01*
X411225Y69409D01*
X407500Y69776D01*
D02*
G37*
G36*
X30520Y35243D02*
Y20520D01*
X45243D01*
X45058Y22394D01*
X44141Y25418D01*
X42651Y28205D01*
X40647Y30647D01*
X38205Y32651D01*
X35418Y34141D01*
X32394Y35058D01*
X30520Y35243D01*
D02*
G37*
G36*
X27980D02*
X26106Y35058D01*
X23082Y34141D01*
X20296Y32651D01*
X17853Y30647D01*
X15849Y28205D01*
X14359Y25418D01*
X13442Y22394D01*
X13257Y20520D01*
X27980D01*
Y35243D01*
D02*
G37*
G36*
X59750Y58692D02*
X56025Y58325D01*
X52444Y57239D01*
X49143Y55474D01*
X46250Y53100D01*
X43876Y50207D01*
X42111Y46906D01*
X41025Y43325D01*
X40658Y39600D01*
X41025Y35875D01*
X42111Y32294D01*
X43876Y28993D01*
X46250Y26100D01*
X49143Y23726D01*
X52444Y21961D01*
X56025Y20875D01*
X59750Y20508D01*
X63475Y20875D01*
X67056Y21961D01*
X70357Y23726D01*
X73250Y26100D01*
X75624Y28993D01*
X77389Y32294D01*
X78475Y35875D01*
X78842Y39600D01*
X78475Y43325D01*
X77389Y46906D01*
X75624Y50207D01*
X73250Y53100D01*
X70357Y55474D01*
X67056Y57239D01*
X63475Y58325D01*
X59750Y58692D01*
D02*
G37*
G36*
X436730Y29064D02*
X422007D01*
X422192Y27190D01*
X423109Y24166D01*
X424599Y21379D01*
X426603Y18937D01*
X429045Y16933D01*
X431832Y15443D01*
X434856Y14526D01*
X436730Y14341D01*
Y29064D01*
D02*
G37*
G36*
X453993D02*
X439270D01*
Y14341D01*
X441144Y14526D01*
X444168Y15443D01*
X446954Y16933D01*
X449397Y18937D01*
X451401Y21379D01*
X452891Y24166D01*
X453808Y27190D01*
X453993Y29064D01*
D02*
G37*
%LPD*%
D26*
X270500Y221500D02*
X282985Y209015D01*
Y191750D02*
Y209015D01*
Y120515D02*
X301350Y102150D01*
X282985Y120515D02*
Y191750D01*
X317934Y102150D02*
X318600Y101484D01*
X301350Y102150D02*
X317934D01*
X150650Y262900D02*
X181300D01*
X142750Y255000D02*
X150650Y262900D01*
X78985Y83015D02*
Y137125D01*
X142750Y200890D02*
Y255000D01*
X78985Y83015D02*
X110250Y51750D01*
X78985Y137125D02*
X142750Y200890D01*
X148100Y51750D02*
X148650Y52300D01*
X110250Y51750D02*
X148100D01*
X237300Y191750D02*
X282985D01*
X148650Y103100D02*
X237300Y191750D01*
X253985Y201500D02*
X257500Y205015D01*
X148650Y128500D02*
X221650Y201500D01*
X253985D01*
X257500Y205015D02*
Y237500D01*
D27*
X59750Y153900D02*
D03*
Y39600D02*
D03*
X407500Y50684D02*
D03*
Y164984D02*
D03*
D28*
X123250Y141200D02*
D03*
X344000Y63384D02*
D03*
D29*
X148650Y128500D02*
D03*
X123250Y115800D02*
D03*
X148650Y103100D02*
D03*
X123250Y90400D02*
D03*
X148650Y77700D02*
D03*
X123250Y65000D02*
D03*
X148650Y52300D02*
D03*
X318600Y76084D02*
D03*
X344000Y88784D02*
D03*
X318600Y101484D02*
D03*
X344000Y114184D02*
D03*
X318600Y126884D02*
D03*
X344000Y139584D02*
D03*
X318600Y152284D02*
D03*
D30*
X29250Y174250D02*
D03*
Y19250D02*
D03*
X438000Y30334D02*
D03*
Y185334D02*
D03*
D31*
X231250Y124250D02*
D03*
X59250Y255500D02*
D03*
X404500Y261750D02*
D03*
D32*
X181300Y237500D02*
D03*
Y262900D02*
D03*
X206700Y237500D02*
D03*
Y262900D02*
D03*
X232100Y237500D02*
D03*
Y262900D02*
D03*
X257500Y237500D02*
D03*
Y262900D02*
D03*
X282900Y237500D02*
D03*
D33*
Y262900D02*
D03*
D34*
X270500Y221500D02*
D03*
D35*
X360000Y44750D02*
X377500Y62250D01*
X325750Y44750D02*
X360000D01*
X318600Y51900D02*
X325750Y44750D01*
X377500Y62250D02*
Y144000D01*
X282900Y262900D02*
X283300Y262500D01*
X298250D01*
X306500Y254250D01*
Y204500D02*
Y254250D01*
X313500Y208000D02*
Y262071D01*
X274600Y280000D02*
X295571D01*
X313500Y262071D01*
Y208000D02*
X377500Y144000D01*
X306500Y204500D02*
X370500Y140500D01*
X318600Y51900D02*
Y76084D01*
X359384Y63384D02*
X370500Y74500D01*
Y140500D01*
X344000Y63384D02*
X359384D01*
X257500Y262900D02*
X274600Y280000D01*
M02*
