M48
;Layer_Color=9474304
;FILE_FORMAT=4:4
METRIC,LZ
;TYPE=PLATED
T1F00S00C0.3000
T2F00S00C1.0700
T3F00S00C1.1000
T4F00S00C1.8000
T5F00S00C3.2000
;TYPE=NON_PLATED
T6F00S00C3.4000
%
T01
X002705Y002215
T02
X001813Y002375
Y002629
X002067
Y002375
X002321
Y002629
X002575
Y002375
X002829
Y002629
T03
X0012325Y00065
Y000904
Y001158
Y001412
X0014865Y001285
Y001031
Y000777
Y000523
X003186Y00076084
Y00101484
Y00126884
Y00152284
X00344Y00139584
Y00114184
Y00088784
Y00063384
T04
X0002925Y0001925
X00438Y00030334
Y00185334
X0002925Y0017425
T05
X0023125Y0012425
X0005925Y002555
X004045Y0026175
T06
X0005975Y000396
Y001539
X004075Y00050684
Y00164984
M30
